Coordinates
version=1
nRows=37
nColumns=38
inDegrees=no

Units are S.I. units (second, meters, Newtons, ...)
If the header above contains a line with 'inDegrees', this indicates whether rotational values are in degrees (yes) or radians (no).

endheader
time	pelvis_tilt	pelvis_list	pelvis_rotation	pelvis_tx	pelvis_ty	pelvis_tz	hip_flexion_r	hip_adduction_r	hip_rotation_r	knee_angle_r	ankle_angle_r	subtalar_angle_r	mtp_angle_r	hip_flexion_l	hip_adduction_l	hip_rotation_l	knee_angle_l	ankle_angle_l	subtalar_angle_l	mtp_angle_l	lumbar_extension	lumbar_bending	lumbar_rotation	arm_flex_r	arm_add_r	arm_rot_r	elbow_flex_r	pro_sup_r	wrist_flex_r	wrist_dev_r	arm_flex_l	arm_add_l	arm_rot_l	elbow_flex_l	pro_sup_l	wrist_flex_l	wrist_dev_l
0	2.95259	1.22037	-1.3678	0.633287	-0.373097	0.968839	-0.499916	0.0689981	-0.509561	0	-0.442919	0	0	0.047562	-0.234755	-0.304148	1.13335	-0.110783	0	0	-0.505301	0.0419262	-0.168035	0.110667	-0.560914	1.18377	0.800981	0.346671	0	0	-0.33132	-0.355077	0.002915	0.994977	1.51048	0	0
0.01	2.95415	1.22244	-1.37537	0.633981	-0.363218	0.968032	-0.514121	0.066439	-0.498857	0	-0.438546	0	0	0.0579447	-0.2343	-0.327941	1.09107	-0.112447	0	0	-0.503375	0.0375221	-0.165751	0.115587	-0.562215	1.19195	0.801595	0.339718	0	0	-0.336328	-0.352809	-0.00268103	0.993452	1.50921	0	0
0.02	2.95813	1.22187	-1.38866	0.634948	-0.353146	0.967344	-0.523599	0.0616156	-0.487251	0	-0.42549	0	0	0.0584379	-0.235477	-0.365536	1.03689	-0.128014	0	0	-0.503455	0.0307977	-0.163682	0.133091	-0.564116	1.22928	0.801177	0.310963	0	0	-0.345001	-0.346044	-0.0192465	0.993122	1.51304	0	0
0.03	2.95769	1.2254	-1.39386	0.635552	-0.343037	0.966164	-0.523599	0.0586445	-0.480789	0	-0.41964	0	0	0.0644611	-0.234854	-0.395096	0.982206	-0.137611	0	0	-0.499785	0.026845	-0.160475	0.137738	-0.564992	1.23918	0.800324	0.30349	0	0	-0.348466	-0.342908	-0.0261793	0.990104	1.51255	0	0
0.04	2.95578	1.22933	-1.39571	0.635966	-0.332944	0.964779	-0.523599	0.0567462	-0.476755	0	-0.414049	0	0	0.0700058	-0.232977	-0.422457	0.925041	-0.145659	0	0	-0.496104	0.0241624	-0.158029	0.140191	-0.565612	1.24369	0.799545	0.29996	0	0	-0.35109	-0.341247	-0.0308497	0.987391	1.51231	0	0
0.05	2.95402	1.23367	-1.39718	0.636279	-0.322821	0.96329	-0.523599	0.0547138	-0.47242	4.62281e-08	-0.406112	0	0	0.0739125	-0.229192	-0.449374	0.864542	-0.155802	0	0	-0.492078	0.0214596	-0.155757	0.14225	-0.565701	1.24768	0.797862	0.297537	0	0	-0.353321	-0.339794	-0.0353435	0.984253	1.51388	0	0
0.06	2.95236	1.23946	-1.39822	0.636488	-0.312653	0.961676	-0.523599	0.0523799	-0.467555	1.21135e-07	-0.386003	0	0	0.0775236	-0.222925	-0.473891	0.800686	-0.172114	0	0	-0.486296	0.018288	-0.156313	0.149875	-0.563519	1.26372	0.792375	0.28945	0	0	-0.357191	-0.334249	-0.0491651	0.98068	1.52348	0	0
0.07	2.94832	1.24673	-1.39444	0.636456	-0.302536	0.959801	-0.523599	0.0516604	-0.464931	1.71964e-07	-0.375423	0	0	0.082738	-0.214596	-0.490379	0.736348	-0.175966	0	0	-0.479178	0.0170782	-0.157678	0.15387	-0.561895	1.27152	0.788477	0.284589	0	0	-0.358637	-0.331796	-0.0563523	0.976592	1.5232	0	0
0.08	2.94284	1.25512	-1.3873	0.636205	-0.292469	0.957737	-0.523599	0.0520136	-0.463685	2.07618e-07	-0.365076	0	0	0.0883549	-0.203988	-0.499226	0.66875	-0.177507	0	0	-0.470975	0.0166315	-0.159745	0.155756	-0.559724	1.27505	0.784086	0.282231	0	0	-0.358745	-0.331194	-0.060227	0.972288	1.52335	0	0
0.09	2.93475	1.26479	-1.37583	0.635709	-0.282389	0.955443	-0.523599	0.0535342	-0.464885	2.27604e-07	-0.354398	0	0	0.0944429	-0.191219	-0.498346	0.597604	-0.177453	0	0	-0.461437	0.0173175	-0.163036	0.156625	-0.557759	1.27652	0.780139	0.281365	0	0	-0.359133	-0.330276	-0.0649102	0.968565	1.5271	0	0
0.1	2.92461	1.27524	-1.36102	0.634989	-0.272293	0.953002	-0.523599	0.0557802	-0.467931	2.37268e-07	-0.343868	0	0	0.0999709	-0.176352	-0.487446	0.523323	-0.176553	0	0	-0.451005	0.0189067	-0.167353	0.156937	-0.555784	1.27671	0.776185	0.281034	0	0	-0.35934	-0.329161	-0.0698701	0.964694	1.53214	0	0
0.11	2.91297	1.28633	-1.3439	0.634111	-0.262162	0.950515	-0.523599	0.058259	-0.473717	2.37243e-07	-0.335061	0	0	0.104098	-0.159882	-0.467547	0.447272	-0.174967	0	0	-0.439836	0.0210614	-0.172545	0.157099	-0.553567	1.27665	0.771793	0.281343	0	0	-0.358345	-0.328416	-0.0737703	0.959764	1.53103	0	0
0.12	2.90121	1.29618	-1.32651	0.633084	-0.251972	0.948189	-0.523599	0.060881	-0.474044	2.48754e-07	-0.327363	0	0	0.104234	-0.14281	-0.441893	0.371347	-0.173039	0	0	-0.429998	0.0232374	-0.177317	0.15678	-0.551358	1.27566	0.767216	0.281527	0	0	-0.35698	-0.327884	-0.0771466	0.954705	1.53284	0	0
0.13	2.88976	1.30464	-1.31024	0.632059	-0.241657	0.946007	-0.523599	0.0627063	-0.476287	2.75703e-07	-0.321257	0	0	0.101221	-0.127219	-0.414996	0.300248	-0.171557	0	0	-0.421521	0.0248762	-0.181176	0.156017	-0.549223	1.27385	0.762846	0.281649	0	0	-0.35603	-0.32761	-0.0805116	0.950327	1.53671	0	0
0.14	2.87921	1.31158	-1.29616	0.63111	-0.231105	0.944019	-0.523599	0.063513	-0.477748	3.21138e-07	-0.316537	0	0	0.0959776	-0.114441	-0.389469	0.237781	-0.172592	0	0	-0.41423	0.0259305	-0.184125	0.155226	-0.54766	1.27295	0.75936	0.282627	0	0	-0.355157	-0.327507	-0.0835563	0.946044	1.53804	0	0
0.15	2.81661	1.34247	-1.24111	0.630536	-0.22048	0.940904	-0.523599	0.0586981	-0.478463	0.0124655	-0.312772	0	0	0.116997	-0.10878	-0.363186	0.183266	-0.177496	0	0	-0.401254	0.0287209	-0.180957	0.158903	-0.546893	1.27354	0.753948	0.283709	0	0	-0.355107	-0.328722	-0.0878889	0.941989	1.53687	0	0
0.16	2.80153	1.3504	-1.22488	0.629971	-0.209089	0.939086	-0.523599	0.0583161	-0.482603	0.0159164	-0.31103	0	0	0.120541	-0.105912	-0.356451	0.168193	-0.178547	0	0	-0.391297	0.0278585	-0.180533	0.155143	-0.54467	1.27226	0.749455	0.283957	0	0	-0.354781	-0.329498	-0.0892682	0.936596	1.53731	0	0
0.17	2.78987	1.35578	-1.21361	0.629434	-0.197648	0.93769	-0.523599	0.0560246	-0.489455	0.0258898	-0.30962	0	0	0.121976	-0.104352	-0.348813	0.166605	-0.183094	0	0	-0.385394	0.0262268	-0.179632	0.152759	-0.542202	1.27097	0.745209	0.283803	0	0	-0.354836	-0.331002	-0.0907059	0.93223	1.53817	0	0
0.18	2.78563	1.35833	-1.21012	0.628801	-0.186076	0.936627	-0.523599	0.0509038	-0.501733	0.0459785	-0.308881	0	0	0.122771	-0.104244	-0.345869	0.184374	-0.188746	0	0	-0.382317	0.0237827	-0.178942	0.150402	-0.540305	1.26934	0.742064	0.283365	0	0	-0.355605	-0.332666	-0.0928151	0.928908	1.53862	0	0
0.19	2.78761	1.36002	-1.21275	0.628003	-0.17416	0.935716	-0.523599	0.0435902	-0.520687	0.0708223	-0.308367	0	0	0.123882	-0.104974	-0.349492	0.216916	-0.191536	0	0	-0.380339	0.0204545	-0.178666	0.147254	-0.539571	1.26756	0.740607	0.283177	0	0	-0.357743	-0.334232	-0.0957111	0.927029	1.53878	0	0
0.2	2.79436	1.36141	-1.22006	0.627003	-0.161878	0.934918	-0.523599	0.0343181	-0.542771	0.0982056	-0.308422	0	0	0.124797	-0.105815	-0.359866	0.255755	-0.1893	0	0	-0.378601	0.0163983	-0.178552	0.143136	-0.540198	1.26581	0.740622	0.28341	0	0	-0.360739	-0.3356	-0.0988882	0.92584	1.53924	0	0
0.21	2.80409	1.3633	-1.2298	0.625766	-0.149238	0.934214	-0.523599	0.0235813	-0.56556	0.126679	-0.309371	0	0	0.124832	-0.104511	-0.371748	0.287884	-0.185737	0	0	-0.37646	0.0120659	-0.178775	0.138117	-0.541716	1.26378	0.741236	0.283851	0	0	-0.364101	-0.336807	-0.101965	0.924861	1.53996	0	0
0.22	2.81715	1.36627	-1.24148	0.624356	-0.136449	0.933663	-0.523599	0.0117117	-0.59083	0.155464	-0.311721	0	0	0.124105	-0.0997305	-0.379631	0.306538	-0.188041	0	0	-0.373333	0.00727981	-0.179796	0.132003	-0.542983	1.26093	0.741151	0.284067	0	0	-0.366834	-0.33824	-0.104448	0.922881	1.5412	0	0
0.23	2.84148	1.36834	-1.26174	0.622601	-0.123532	0.933488	-0.523599	1.94827e-05	-0.60721	0.183701	-0.316402	0	0	0.120827	-0.0918621	-0.383851	0.316652	-0.199354	0	0	-0.370333	0.00152527	-0.182805	0.124668	-0.543697	1.25726	0.740066	0.284127	0	0	-0.368521	-0.34019	-0.106236	0.919526	1.54311	0	0
0.24	2.87208	1.37006	-1.28681	0.620699	-0.11073	0.93365	-0.523599	-0.0115856	-0.618824	0.208963	-0.325363	0	0	0.115931	-0.0833777	-0.387233	0.324603	-0.216613	0	0	-0.367368	-0.00471774	-0.186777	0.116779	-0.544017	1.25322	0.738184	0.28428	0	0	-0.369353	-0.342252	-0.108144	0.915455	1.54513	0	0
0.25	2.90858	1.37564	-1.31693	0.618163	-0.0979111	0.93373	-0.523599	-0.0286752	-0.602996	0.227443	-0.339883	0	0	0.114732	-0.0720678	-0.389315	0.333369	-0.235684	0	0	-0.361819	-0.0118456	-0.19232	0.109034	-0.545139	1.24881	0.736088	0.28459	0	0	-0.369776	-0.343214	-0.110116	0.911103	1.54745	0	0
0.26	2.94129	1.38012	-1.34324	0.615402	-0.0849974	0.933976	-0.523599	-0.0439783	-0.579707	0.242062	-0.360896	0	0	0.113568	-0.063028	-0.391285	0.346025	-0.254151	0	0	-0.355454	-0.0172533	-0.197791	0.100823	-0.547335	1.24425	0.734233	0.285245	0	0	-0.370703	-0.342989	-0.112957	0.906738	1.54965	0	0
0.27	2.96822	1.38016	-1.36308	0.612585	-0.0719634	0.934537	-0.523599	-0.0555695	-0.565738	0.260832	-0.388277	0	0	0.108879	-0.0576413	-0.393032	0.362898	-0.270254	0	0	-0.351149	-0.0200534	-0.203294	0.0919967	-0.551335	1.23964	0.734389	0.286292	0	0	-0.372847	-0.342175	-0.116885	0.90417	1.55199	0	0
0.28	2.99386	1.37549	-1.38045	0.609692	-0.0589576	0.935461	-0.523599	-0.0657797	-0.559279	0.289733	-0.420189	0	0	0.0985647	-0.0535051	-0.393414	0.37961	-0.2815	0	0	-0.350426	-0.0211031	-0.209603	0.0831414	-0.557252	1.2348	0.737293	0.287639	0	0	-0.376127	-0.34122	-0.121832	0.904302	1.55427	0	0
0.29	3.02344	1.36724	-1.40188	0.606779	-0.0461462	0.936832	-0.523599	-0.0777925	-0.556122	0.325219	-0.456922	0	0	0.0817384	-0.0479324	-0.393438	0.391215	-0.286913	0	0	-0.353797	-0.022198	-0.216222	0.0752966	-0.564253	1.22998	0.741963	0.289384	0	0	-0.37921	-0.34022	-0.127563	0.906022	1.55566	0	0
0.3	3.05699	1.35573	-1.42777	0.60424	-0.0335387	0.938624	-0.523599	-0.0919989	-0.553808	0.365717	-0.499179	0	0	0.0584817	-0.0405865	-0.394561	0.397233	-0.287793	0	0	-0.361065	-0.0241756	-0.222785	0.0686014	-0.571564	1.22532	0.747521	0.291567	0	0	-0.381805	-0.339661	-0.133694	0.90927	1.55601	0	0
0.31	3.09373	1.34102	-1.45812	0.601504	-0.0215372	0.940909	-0.523599	-0.108621	-0.552654	0.410175	-0.547755	0	0	0.0292574	-0.0320441	-0.398311	0.399133	-0.286213	0	0	-0.372249	-0.0275326	-0.228949	0.0635062	-0.578403	1.22092	0.753368	0.293973	0	0	-0.383766	-0.340282	-0.139746	0.913612	1.55595	0	0
0.32	3.1281	1.32335	-1.48772	0.599394	-0.00988062	0.943547	-0.523599	-0.126999	-0.555271	0.456602	-0.602353	0	0	-0.00473845	-0.0236266	-0.405175	0.398678	-0.283585	0	0	-0.387019	-0.0317639	-0.234226	0.0602002	-0.584971	1.21682	0.759743	0.296502	0	0	-0.385355	-0.341788	-0.145857	0.919726	1.55506	0	0
0.33	-3.12537	1.30248	-1.50924	0.596969	0.000917688	0.946013	-0.523599	-0.142401	-0.546086	0.508903	-0.656778	0	0	-0.0403157	-0.0158304	-0.408131	0.400565	-0.279493	0	0	-0.403615	-0.0342999	-0.242653	0.0577885	-0.593525	1.21246	0.769387	0.29907	0	0	-0.387203	-0.343972	-0.151904	0.929345	1.55341	0	0
0.34	-3.07984	1.25624	-1.54222	0.594809	0.0104456	0.949286	-0.523599	-0.148684	-0.447841	0.588113	-0.698132	0	0	-0.101397	-0.00488389	-0.411464	0.405107	-0.272375	0	0	-0.434392	-0.0416069	-0.256457	0.0580878	-0.607272	1.20627	0.793863	0.302395	0	0	-0.392176	-0.347345	-0.159456	0.951477	1.54949	0	0
0.35	-3.05846	1.24744	-1.56843	0.594578	0.0203837	0.949036	-0.477301	-0.146683	-0.268392	0.750814	-0.625284	0	0	-0.123968	0.000345103	-0.423818	0.409959	-0.253233	0	0	-0.448429	-0.0487211	-0.256206	0.0527185	-0.62675	1.18336	0.828961	0.310566	0	0	-0.401035	-0.35362	-0.168643	0.979586	1.53968	0	0
0.36	-3.04034	1.25523	-1.58537	0.593533	0.0311284	0.948383	-0.41855	-0.152001	-0.215103	0.854497	-0.587354	0	0	-0.127571	0.00534861	-0.422916	0.41379	-0.240405	0	0	-0.439359	-0.0535357	-0.259404	0.0462887	-0.633139	1.16947	0.838002	0.320285	0	0	-0.403016	-0.359508	-0.168367	0.988449	1.53418	0	0
